<svg width="48" height="42" viewBox="0 0 48 42" fill="none" xmlns="http://www.w3.org/2000/svg">
<path fill-rule="evenodd" clip-rule="evenodd" d="M34.1445 10.2433C34.1445 15.9005 29.5584 20.4866 23.9012 20.4866C18.244 20.4866 13.6579 15.9005 13.6579 10.2433C13.6579 4.58608 18.244 0 23.9012 0C29.5584 0 34.1445 4.58608 34.1445 10.2433ZM0.0744521 19.7422C11.2343 18.9899 20.9604 27.3453 21.8664 38.5287C21.9602 39.6876 21.9558 40.8317 21.8599 41.9529C10.7001 42.7052 0.9739 34.3498 0.0679733 23.1664C-0.0259027 22.0075 -0.021414 20.8634 0.0744521 19.7422ZM29.0805 41.5614C40.2639 40.6555 48.6192 30.9294 47.867 19.7696C46.7458 19.6737 45.6017 19.6692 44.4428 19.7631C33.2594 20.669 24.9041 30.3952 25.6563 41.5549C26.7775 41.6508 27.9216 41.6553 29.0805 41.5614Z" fill="url(#paint0_linear_6_35)"/>
<defs>
<linearGradient id="paint0_linear_6_35" x1="48.6161" y1="42" x2="23.957" y2="42" gradientUnits="userSpaceOnUse">
<stop stop-color="#ED14CA"/>
<stop offset="1" stop-color="#8034BB"/>
</linearGradient>
</defs>
</svg>
