<svg width="32" height="32" viewBox="0 0 32 32" fill="none" xmlns="http://www.w3.org/2000/svg">
<path d="M25.6 4H6.4C5.08 4 4 5.08 4 6.4V25.6C4 26.92 5.08 28 6.4 28H25.6C26.92 28 28 26.92 28 25.6V6.4C28 5.08 26.92 4 25.6 4ZM11.2 24.4H7.6V13.6H11.2V24.4ZM9.4 11.56C8.2 11.56 7.24 10.6 7.24 9.4C7.24 8.2 8.2 7.24 9.4 7.24C10.6 7.24 11.56 8.2 11.56 9.4C11.56 10.6 10.6 11.56 9.4 11.56ZM24.4 24.4H20.8V18.04C20.8 17.08 19.96 16.24 19 16.24C18.04 16.24 17.2 17.08 17.2 18.04V24.4H13.6V13.6H17.2V15.04C17.8 14.08 19.12 13.36 20.2 13.36C22.48 13.36 24.4 15.28 24.4 17.56V24.4Z" fill="url(#paint0_linear_15_14)"/>
<defs>
<linearGradient id="paint0_linear_15_14" x1="28.3516" y1="28" x2="16" y2="28" gradientUnits="userSpaceOnUse">
<stop stop-color="#ED14CA"/>
<stop offset="1" stop-color="#8034BB"/>
</linearGradient>
</defs>
</svg>
