<svg width="32" height="32" viewBox="0 0 32 32" fill="none" xmlns="http://www.w3.org/2000/svg">
<path fill-rule="evenodd" clip-rule="evenodd" d="M29.0908 8.19462C28.1807 8.59789 27.2041 8.87139 26.1781 8.99349C27.2257 8.36614 28.0277 7.37107 28.4078 6.189C27.4251 6.76997 26.3403 7.19183 25.1845 7.42052C24.259 6.43317 22.9425 5.81818 21.4823 5.81818C18.6809 5.81818 16.4095 8.08957 16.4095 10.8894C16.4095 11.2865 16.4544 11.6743 16.5409 12.0452C12.3257 11.8335 8.58797 9.81397 6.08635 6.74525C5.64906 7.49313 5.40029 8.36456 5.40029 9.29478C5.40029 11.0547 6.2965 12.6076 7.65625 13.5162C6.82494 13.4884 6.04308 13.2597 5.3586 12.8795V12.9429C5.3586 15.3997 7.10773 17.4501 9.427 17.9168C9.00207 18.0311 8.55399 18.0945 8.09043 18.0945C7.76288 18.0945 7.44611 18.0621 7.13553 18.0002C7.78138 20.0167 9.65415 21.483 11.873 21.5232C10.1378 22.883 7.94983 23.6911 5.57338 23.6911C5.16393 23.6911 4.76062 23.6664 4.36353 23.6216C6.60866 25.0632 9.27407 25.9038 12.1388 25.9038C21.47 25.9038 26.5706 18.1749 26.5706 11.472L26.5536 10.8153C27.5502 10.1044 28.4124 9.21135 29.0908 8.19462Z" fill="url(#paint0_linear_15_13)"/>
<mask id="mask0_15_13" style="mask-type:luminance" maskUnits="userSpaceOnUse" x="4" y="5" width="26" height="21">
<path fill-rule="evenodd" clip-rule="evenodd" d="M29.0908 8.19462C28.1807 8.59789 27.2041 8.87139 26.1781 8.99349C27.2257 8.36614 28.0277 7.37107 28.4078 6.189C27.4251 6.76997 26.3403 7.19183 25.1845 7.42052C24.259 6.43317 22.9425 5.81818 21.4823 5.81818C18.6809 5.81818 16.4095 8.08957 16.4095 10.8894C16.4095 11.2865 16.4544 11.6743 16.5409 12.0452C12.3257 11.8335 8.58797 9.81397 6.08635 6.74525C5.64906 7.49313 5.40029 8.36456 5.40029 9.29478C5.40029 11.0547 6.2965 12.6076 7.65625 13.5162C6.82494 13.4884 6.04308 13.2597 5.3586 12.8795V12.9429C5.3586 15.3997 7.10773 17.4501 9.427 17.9168C9.00207 18.0311 8.55399 18.0945 8.09043 18.0945C7.76288 18.0945 7.44611 18.0621 7.13553 18.0002C7.78138 20.0167 9.65415 21.483 11.873 21.5232C10.1378 22.883 7.94983 23.6911 5.57338 23.6911C5.16393 23.6911 4.76062 23.6664 4.36353 23.6216C6.60866 25.0632 9.27407 25.9038 12.1388 25.9038C21.47 25.9038 26.5706 18.1749 26.5706 11.472L26.5536 10.8153C27.5502 10.1044 28.4124 9.21135 29.0908 8.19462Z" fill="white"/>
</mask>
<g mask="url(#mask0_15_13)">
</g>
<defs>
<linearGradient id="paint0_linear_15_13" x1="29.4531" y1="25.9038" x2="16.7271" y2="25.9038" gradientUnits="userSpaceOnUse">
<stop stop-color="#ED14CA"/>
<stop offset="1" stop-color="#8034BB"/>
</linearGradient>
</defs>
</svg>
